<?xml version="1.0" standalone="no"?>
<!DOCTYPE svg PUBLIC "-//W3C//DTD SVG 20010904//EN"
 "http://www.w3.org/TR/2001/REC-SVG-20010904/DTD/svg10.dtd">
<svg version="1.0" xmlns="http://www.w3.org/2000/svg"
 width="609.000000pt" height="488.000000pt" viewBox="0 0 609.000000 488.000000"
 preserveAspectRatio="xMidYMid meet">

<g transform="translate(0.000000,488.000000) scale(0.100000,-0.100000)"
fill="#000000" stroke="none">
<path d="M0 2440 l0 -2440 3045 0 3045 0 0 2440 0 2440 -3045 0 -3045 0 0
-2440z m3321 2086 c21 -9 62 -206 44 -212 -7 -3 -54 -1 -105 4 -80 8 -95 13
-114 35 -33 40 -61 50 -101 37 -81 -27 -89 -143 -12 -175 41 -17 73 -10 108
22 26 23 27 24 120 12 183 -21 327 -60 565 -149 l60 -23 113 77 c63 42 117 76
121 76 5 0 49 -28 100 -62 101 -68 286 -231 345 -302 l37 -46 -23 -47 c-13
-27 -34 -68 -48 -92 l-24 -43 -102 104 c-56 58 -132 130 -169 161 -77 63 -60
63 -200 -2 -49 -23 -94 -41 -102 -41 -8 0 -31 10 -52 23 -148 93 -335 167
-522 208 -137 30 -449 38 -592 15 -399 -65 -740 -262 -1010 -584 l-70 -84
-222 5 c-121 3 -222 6 -223 6 -9 3 91 173 112 191 10 8 41 2 126 -26 l113 -38
44 50 c67 76 67 68 7 192 -30 61 -55 116 -55 120 0 23 237 215 253 205 7 -3
55 -37 108 -75 95 -67 116 -76 135 -59 15 14 193 105 256 130 65 26 62 19 78
200 4 57 12 107 17 111 13 12 158 48 278 69 93 17 146 20 350 17 132 -2 247
-6 256 -10z m667 -216 c28 -17 52 -34 52 -39 0 -5 -36 -33 -81 -64 l-81 -55
-49 20 c-27 12 -49 26 -49 33 0 15 128 135 144 135 6 0 35 -14 64 -30z m-2221
-1243 c99 -28 143 -84 151 -189 l5 -68 -132 -1 c-72 -1 -136 -2 -143 -3 -6 -1
-15 13 -20 29 -10 40 -33 53 -104 55 -123 5 -152 1 -181 -24 -24 -21 -26 -26
-16 -49 14 -30 52 -42 158 -52 192 -17 302 -38 351 -67 96 -56 99 -260 6 -368
-70 -83 -148 -102 -416 -102 -345 -1 -426 42 -426 225 l0 58 138 -3 137 -3 3
-28 c5 -44 44 -57 174 -57 125 0 158 12 158 55 0 61 -20 69 -210 85 -133 11
-218 29 -272 56 -44 23 -78 91 -78 157 0 181 78 281 241 306 91 14 411 6 476
-12z m1086 -13 c-1 -7 -7 -53 -14 -103 l-12 -91 -262 0 -263 0 -6 -22 c-3 -13
-6 -38 -6 -55 l0 -33 236 0 237 0 -7 -72 c-4 -40 -10 -83 -13 -95 l-5 -23
-238 0 c-266 0 -250 5 -250 -76 l0 -44 270 0 270 0 -5 -27 c-2 -16 -9 -61 -16
-100 l-11 -73 -404 0 c-383 0 -404 1 -404 18 0 10 7 70 15 133 9 63 20 148 26
189 17 126 59 469 59 483 0 4 181 6 403 5 293 -2 401 -6 400 -14z m504 -147
c100 -197 172 -326 173 -309 0 16 48 397 55 440 l6 32 129 0 c72 0 130 -1 130
-2 0 -2 -9 -73 -20 -158 -19 -154 -37 -298 -65 -523 -8 -66 -15 -125 -15 -133
0 -12 -27 -14 -166 -12 l-165 3 -38 70 c-21 39 -53 97 -71 130 -18 33 -57 105
-87 160 -30 55 -59 104 -63 109 -9 9 -11 -1 -40 -259 -12 -99 -23 -188 -26
-197 -5 -16 -20 -18 -130 -18 -111 0 -124 2 -124 18 0 21 48 405 90 725 l12
87 167 0 166 0 82 -163z m1243 61 c68 -222 211 -674 227 -715 4 -10 -29 -13
-144 -13 l-149 0 -13 53 c-24 94 -8 87 -216 87 l-184 0 -41 -70 -41 -70 -134
0 c-74 0 -135 3 -135 6 0 5 52 100 110 199 73 126 120 208 120 211 0 1 27 49
61 106 34 57 71 121 84 143 12 22 39 68 59 103 l37 62 164 0 163 0 32 -102z
m630 89 c0 -7 -4 -38 -10 -68 -5 -30 -14 -92 -20 -139 -5 -47 -14 -121 -19
-165 -6 -44 -20 -156 -31 -250 -11 -93 -22 -176 -25 -182 -3 -10 -40 -13 -140
-13 -74 0 -135 3 -135 8 0 6 11 86 40 302 4 36 20 162 35 280 15 118 28 221
30 228 6 18 275 17 275 -1z m-224 -1036 c38 -16 88 -37 112 -47 23 -10 42 -20
42 -23 0 -4 -12 -11 -27 -18 -16 -6 -66 -27 -112 -47 -47 -20 -88 -36 -93 -36
-4 0 -8 16 -8 35 l0 35 -2024 0 c-1114 0 -2027 4 -2030 8 -3 5 -2 18 1 30 l5
22 2008 0 c1105 0 2015 3 2024 6 10 4 16 18 16 35 0 16 4 29 9 29 4 0 39 -13
77 -29z m-173 -451 c10 0 -77 -168 -107 -204 l-21 -26 -115 29 c-63 16 -122
32 -131 35 -11 5 -42 -22 -110 -95 -137 -149 -312 -290 -466 -375 -26 -15 -56
-32 -67 -38 -17 -10 -18 -21 -12 -149 l7 -138 -36 -15 c-45 -19 -171 -58 -255
-79 -120 -31 -235 -46 -395 -52 -142 -5 -358 7 -372 21 -3 3 -16 62 -29 132
-13 70 -27 130 -31 134 -4 4 -42 16 -83 25 -41 10 -112 31 -158 47 -46 15 -88
28 -93 28 -5 0 -50 -38 -100 -85 -50 -47 -95 -85 -100 -85 -29 0 -221 112
-324 189 -123 92 -345 300 -345 323 0 14 67 137 88 160 14 16 19 13 76 -49
106 -115 244 -233 273 -233 8 0 58 20 112 45 54 25 104 45 112 45 8 0 42 -18
77 -40 34 -22 64 -40 66 -40 2 0 42 -18 88 -39 108 -51 175 -73 323 -107 110
-26 137 -28 325 -28 175 -1 221 2 317 22 367 74 692 272 934 569 34 41 69 73
82 76 16 2 418 1 470 -3z m-387 -442 c19 -37 31 -74 28 -82 -9 -22 -155 -146
-173 -146 -9 0 -54 23 -100 52 l-84 52 44 35 c24 20 82 73 129 118 l85 83 19
-23 c10 -12 33 -52 52 -89z"/>
<path d="M4302 2715 c-34 -68 -62 -129 -62 -135 0 -6 38 -10 100 -10 55 0 100
2 100 5 0 15 -63 251 -69 257 -4 4 -35 -48 -69 -117z"/>
</g>
</svg>
